<mxfile host="app.diagrams.net" modified="2024-05-05T13:23:11.492Z" agent="Mozilla/5.0 (X11; Linux x86_64; rv:125.0) Gecko/20100101 Firefox/125.0" etag="miuDftV5Ns224E9iWHLF" version="24.3.1" type="device">
  <diagram name="Page-1" id="SsM6zasO9V9_dzmtPSY8">
    <mxGraphModel dx="1274" dy="591" grid="1" gridSize="10" guides="1" tooltips="1" connect="1" arrows="1" fold="1" page="1" pageScale="1" pageWidth="850" pageHeight="1100" math="0" shadow="0">
      <root>
        <mxCell id="0" />
        <mxCell id="1" parent="0" />
        <mxCell id="MQDTfQCnSTWBYaPkgC8Y-3" style="edgeStyle=orthogonalEdgeStyle;rounded=0;orthogonalLoop=1;jettySize=auto;html=1;dashed=1;dashPattern=8 8;entryX=0.5;entryY=0;entryDx=0;entryDy=0;" parent="1" edge="1">
          <mxGeometry relative="1" as="geometry">
            <mxPoint x="400" y="350" as="sourcePoint" />
            <mxPoint x="400" y="505" as="targetPoint" />
          </mxGeometry>
        </mxCell>
        <mxCell id="lwL93aJvqX7ipVFMok0Q-1" value="«Component»&lt;br&gt;&lt;div&gt;&lt;b&gt;HuggingFaceChatUI&lt;/b&gt;&lt;/div&gt;" style="html=1;dropTarget=0;whiteSpace=wrap;" parent="1" vertex="1">
          <mxGeometry x="350" y="260" width="180" height="90" as="geometry" />
        </mxCell>
        <mxCell id="lwL93aJvqX7ipVFMok0Q-2" value="" style="shape=module;jettyWidth=8;jettyHeight=4;" parent="lwL93aJvqX7ipVFMok0Q-1" vertex="1">
          <mxGeometry x="1" width="20" height="20" relative="1" as="geometry">
            <mxPoint x="-27" y="7" as="offset" />
          </mxGeometry>
        </mxCell>
        <mxCell id="MQDTfQCnSTWBYaPkgC8Y-4" style="edgeStyle=orthogonalEdgeStyle;rounded=0;orthogonalLoop=1;jettySize=auto;html=1;dashed=1;dashPattern=8 8;entryX=0.5;entryY=1;entryDx=0;entryDy=0;" parent="1" edge="1">
          <mxGeometry relative="1" as="geometry">
            <mxPoint x="480" y="350" as="targetPoint" />
            <mxPoint x="480" y="505" as="sourcePoint" />
          </mxGeometry>
        </mxCell>
        <mxCell id="lwL93aJvqX7ipVFMok0Q-5" value="«Component»&lt;br&gt;&lt;div&gt;&lt;b&gt;CNCFLLM&lt;/b&gt;&lt;/div&gt;" style="html=1;dropTarget=0;whiteSpace=wrap;" parent="1" vertex="1">
          <mxGeometry x="350" y="505" width="180" height="90" as="geometry" />
        </mxCell>
        <mxCell id="lwL93aJvqX7ipVFMok0Q-6" value="" style="shape=module;jettyWidth=8;jettyHeight=4;" parent="lwL93aJvqX7ipVFMok0Q-5" vertex="1">
          <mxGeometry x="1" width="20" height="20" relative="1" as="geometry">
            <mxPoint x="-27" y="7" as="offset" />
          </mxGeometry>
        </mxCell>
      </root>
    </mxGraphModel>
  </diagram>
</mxfile>
